<svg width="448" height="452" viewBox="0 0 448 452" fill="none" xmlns="http://www.w3.org/2000/svg">
<g filter="url(#filter0_d_31_44)">
<path d="M332.84 188.562C312.012 209.39 312.013 243.159 332.84 263.987C353.668 284.814 387.437 284.814 408.265 263.987C429.093 243.159 429.093 209.39 408.265 188.562C387.437 167.734 353.668 167.734 332.84 188.562Z" stroke="#EB5939" stroke-width="35.6418" stroke-linecap="round" stroke-linejoin="round"/>
<path d="M181.991 37.7122C161.163 58.5402 161.163 92.309 181.991 113.137C202.819 133.965 236.588 133.965 257.416 113.137C278.244 92.309 278.244 58.5402 257.416 37.7122C236.588 16.8842 202.819 16.8842 181.991 37.7122Z" stroke="#EB5939" stroke-width="35.6418" stroke-linecap="round" stroke-linejoin="round"/>
<path d="M219.703 427.407L219.703 128.725" stroke="#EB5939" stroke-width="35.6418" stroke-linecap="round" stroke-linejoin="round"/>
<path d="M157.478 226.149L18.571 226.274" stroke="#EB5939" stroke-width="35.6418" stroke-linecap="round" stroke-linejoin="round"/>
<path d="M317.251 226.272H219.702" stroke="#EB5939" stroke-width="35.6418" stroke-linecap="round" stroke-linejoin="round"/>
</g>
<defs>
<filter id="filter0_d_31_44" x="0.750107" y="4.27026" width="446.871" height="446.872" filterUnits="userSpaceOnUse" color-interpolation-filters="sRGB">
<feFlood flood-opacity="0" result="BackgroundImageFix"/>
<feColorMatrix in="SourceAlpha" type="matrix" values="0 0 0 0 0 0 0 0 0 0 0 0 0 0 0 0 0 0 127 0" result="hardAlpha"/>
<feOffset dx="5.91431" dy="5.91431"/>
<feComposite in2="hardAlpha" operator="out"/>
<feColorMatrix type="matrix" values="0 0 0 0 0.717647 0 0 0 0 0.666667 0 0 0 0 0.596078 0 0 0 1 0"/>
<feBlend mode="normal" in2="BackgroundImageFix" result="effect1_dropShadow_31_44"/>
<feBlend mode="normal" in="SourceGraphic" in2="effect1_dropShadow_31_44" result="shape"/>
</filter>
</defs>
</svg>
